<svg xmlns="http://www.w3.org/2000/svg" viewBox="0 0 64 64">
<rect width="64" height="64" rx="14" fill="#15100C"/>
<g fill="none" stroke-width="2.2" stroke-linecap="round" filter="url(#g)">
<line x1="32.00" y1="20.50" x2="32.00" y2="17.14" stroke="#ff5c39"/>
<line x1="33.29" y1="20.57" x2="34.36" y2="11.09" stroke="#ff5f39"/>
<line x1="34.56" y1="20.79" x2="38.01" y2="5.69" stroke="#fe6239"/>
<line x1="35.80" y1="21.15" x2="40.27" y2="8.37" stroke="#fe6439"/>
<line x1="36.99" y1="21.64" x2="39.49" y2="16.45" stroke="#fd6739"/>
<line x1="38.12" y1="22.26" x2="41.71" y2="16.55" stroke="#fd6a3a"/>
<line x1="39.17" y1="23.01" x2="47.25" y2="12.88" stroke="#fd6c3a"/>
<line x1="40.13" y1="23.87" x2="50.99" y2="13.01" stroke="#fc6f3a"/>
<line x1="40.99" y1="24.83" x2="48.91" y2="18.52" stroke="#fc723a"/>
<line x1="41.74" y1="25.88" x2="44.15" y2="24.37" stroke="#fb753a"/>
<line x1="42.36" y1="27.01" x2="51.95" y2="22.39" stroke="#fb783a"/>
<line x1="42.85" y1="28.20" x2="56.99" y2="23.26" stroke="#fb7a3a"/>
<line x1="43.21" y1="29.44" x2="56.05" y2="26.51" stroke="#fa7d3a"/>
<line x1="43.43" y1="30.71" x2="49.69" y2="30.01" stroke="#fa803a"/>
<line x1="43.50" y1="32.00" x2="49.42" y2="32.00" stroke="#fa823a"/>
<line x1="43.43" y1="33.29" x2="57.36" y2="34.86" stroke="#f9853b"/>
<line x1="43.21" y1="34.56" x2="57.77" y2="37.88" stroke="#f9883b"/>
<line x1="42.85" y1="35.80" x2="51.93" y2="38.97" stroke="#f88b3b"/>
<line x1="42.36" y1="36.99" x2="45.59" y2="38.55" stroke="#f88e3b"/>
<line x1="41.74" y1="38.12" x2="49.76" y2="43.16" stroke="#f8903b"/>
<line x1="40.99" y1="39.17" x2="53.39" y2="49.06" stroke="#f7933b"/>
<line x1="40.13" y1="40.13" x2="49.23" y2="49.23" stroke="#f7963b"/>
<line x1="39.17" y1="40.99" x2="42.77" y2="45.50" stroke="#f6983b"/>
<line x1="38.12" y1="41.74" x2="41.88" y2="47.72" stroke="#f69b3b"/>
<line x1="36.99" y1="42.36" x2="42.48" y2="53.76" stroke="#f69e3c"/>
<line x1="35.80" y1="42.85" x2="40.94" y2="57.54" stroke="#f5a13c"/>
<line x1="34.56" y1="43.21" x2="36.66" y2="52.43" stroke="#f5a43c"/>
<line x1="33.29" y1="43.43" x2="33.67" y2="46.78" stroke="#f4a63c"/>
<line x1="32.00" y1="43.50" x2="32.00" y2="54.49" stroke="#f4a93c"/>
<line x1="30.71" y1="43.43" x2="29.09" y2="57.80" stroke="#f0a742"/>
<line x1="29.44" y1="43.21" x2="26.50" y2="56.09" stroke="#eca647"/>
<line x1="28.20" y1="42.85" x2="26.31" y2="48.27" stroke="#e9a44d"/>
<line x1="27.01" y1="42.36" x2="24.12" y2="48.35" stroke="#e5a252"/>
<line x1="25.88" y1="41.74" x2="18.27" y2="53.85" stroke="#e1a158"/>
<line x1="24.83" y1="40.99" x2="15.95" y2="52.13" stroke="#dd9f5d"/>
<line x1="23.87" y1="40.13" x2="17.10" y2="46.90" stroke="#da9e63"/>
<line x1="23.01" y1="39.17" x2="20.10" y2="41.49" stroke="#d69c69"/>
<line x1="22.26" y1="38.12" x2="13.54" y2="43.60" stroke="#d29a6e"/>
<line x1="21.64" y1="36.99" x2="7.22" y2="43.93" stroke="#ce9974"/>
<line x1="21.15" y1="35.80" x2="9.74" y2="39.79" stroke="#ca9779"/>
<line x1="20.79" y1="34.56" x2="15.24" y2="35.83" stroke="#c7957f"/>
<line x1="20.57" y1="33.29" x2="13.38" y2="34.10" stroke="#c39484"/>
<line x1="20.50" y1="32.00" x2="7.19" y2="32.00" stroke="#bf928a"/>
<line x1="20.57" y1="30.71" x2="5.13" y2="28.97" stroke="#bb9090"/>
<line x1="20.79" y1="29.44" x2="12.31" y2="27.51" stroke="#b78f95"/>
<line x1="21.15" y1="28.20" x2="17.48" y2="26.92" stroke="#b48d9b"/>
<line x1="21.64" y1="27.01" x2="11.59" y2="22.17" stroke="#b08ba0"/>
<line x1="22.26" y1="25.88" x2="9.80" y2="18.05" stroke="#ac8aa6"/>
<line x1="23.01" y1="24.83" x2="12.79" y2="16.68" stroke="#a888ab"/>
<line x1="23.87" y1="23.87" x2="20.26" y2="20.26" stroke="#a486b1"/>
<line x1="24.83" y1="23.01" x2="20.26" y2="17.27" stroke="#a185b7"/>
<line x1="25.88" y1="22.26" x2="18.24" y2="10.10" stroke="#9d83bc"/>
<line x1="27.01" y1="21.64" x2="20.92" y2="8.99" stroke="#9982c2"/>
<line x1="28.20" y1="21.15" x2="25.11" y2="12.31" stroke="#9580c7"/>
<line x1="29.44" y1="20.79" x2="28.60" y2="17.12" stroke="#927ecd"/>
<line x1="30.71" y1="20.57" x2="29.47" y2="9.57" stroke="#8e7dd2"/>
</g>
<filter id="g"><feGaussianBlur stdDeviation="0.5"/></filter>
</svg>